<?xml version="1.0" standalone="no"?>
<!DOCTYPE svg PUBLIC "-//W3C//DTD SVG 20010904//EN"
 "http://www.w3.org/TR/2001/REC-SVG-20010904/DTD/svg10.dtd">
<svg version="1.0" xmlns="http://www.w3.org/2000/svg"
 width="1474.000000pt" height="1474.000000pt" viewBox="0 0 1474.000000 1474.000000"
 preserveAspectRatio="xMidYMid meet">
<metadata>
Created by potrace 1.11, written by Peter Selinger 2001-2013
</metadata>
<g transform="translate(0.000000,1474.000000) scale(0.100000,-0.100000)"
fill="#000000" stroke="none">
<path d="M12180 14508 c-271 -70 -595 -346 -943 -802 -113 -149 -120 -158
-271 -386 -181 -272 -201 -305 -338 -540 -306 -526 -616 -1128 -895 -1740 -42
-91 -87 -190 -101 -220 -14 -30 -26 -60 -28 -66 -9 -46 -126 -190 -198 -244
-148 -111 -291 -146 -511 -126 -264 23 -688 23 -1010 1 -119 -9 -211 -16 -245
-20 -19 -2 -66 -7 -105 -10 -38 -3 -81 -8 -95 -10 -14 -3 -50 -7 -81 -10 -31
-3 -64 -7 -75 -9 -10 -2 -39 -7 -64 -11 -25 -4 -54 -9 -65 -11 -11 -3 -36 -7
-55 -10 -19 -3 -42 -7 -50 -9 -8 -2 -31 -7 -50 -10 -65 -11 -235 -46 -295 -62
-33 -8 -67 -16 -75 -18 -271 -59 -660 -177 -914 -277 -128 -51 -198 -66 -296
-66 -169 0 -328 66 -451 188 -41 41 -97 101 -125 133 -27 33 -58 69 -69 81
-11 12 -35 39 -54 61 -29 35 -133 151 -196 221 -11 12 -51 57 -90 99 -38 43
-86 95 -105 115 -19 21 -89 96 -155 166 -119 128 -631 643 -755 760 -36 33
-117 107 -180 164 -63 56 -133 119 -155 139 -79 71 -269 228 -405 334 -172
134 -433 310 -585 394 -467 258 -804 290 -1031 98 -100 -85 -200 -250 -240
-395 -2 -8 -11 -40 -19 -70 -26 -91 -41 -176 -60 -330 -16 -129 -23 -567 -11
-690 2 -19 6 -82 10 -140 4 -58 9 -121 11 -140 2 -19 7 -57 10 -85 17 -155 28
-239 40 -320 8 -52 16 -109 21 -145 5 -37 40 -247 49 -290 3 -14 9 -50 15 -80
6 -30 12 -66 15 -80 3 -14 8 -38 10 -55 7 -40 53 -259 66 -315 6 -25 13 -55
15 -68 3 -13 18 -81 35 -150 17 -70 32 -134 34 -142 10 -48 88 -360 96 -385 5
-16 23 -82 39 -145 17 -63 37 -137 45 -165 8 -27 36 -122 61 -210 25 -88 64
-218 86 -290 61 -200 139 -448 145 -465 3 -8 38 -112 79 -230 152 -447 261
-742 435 -1177 59 -150 114 -302 122 -338 18 -92 14 -209 -13 -315 -5 -19 -12
-64 -15 -100 -4 -36 -9 -73 -11 -83 -17 -92 -24 -567 -10 -777 12 -185 16
-233 21 -270 2 -19 7 -64 10 -100 3 -36 8 -76 10 -90 2 -14 7 -50 10 -80 3
-30 10 -80 15 -110 5 -30 12 -77 15 -105 20 -167 116 -404 243 -600 172 -265
527 -610 882 -858 52 -36 100 -70 105 -74 26 -22 295 -189 420 -261 688 -394
1603 -782 2485 -1052 151 -46 310 -100 325 -110 6 -3 42 -19 80 -35 181 -74
349 -174 505 -299 238 -193 565 -314 945 -352 125 -13 415 -7 515 10 14 3 42
7 63 10 454 68 895 281 1182 571 86 87 101 105 155 186 119 176 249 312 450
473 47 37 92 73 100 79 8 7 69 48 135 91 66 44 209 142 319 220 109 78 208
148 220 156 112 79 613 469 672 525 6 5 33 28 60 50 41 34 264 227 300 260
169 154 236 218 379 360 279 279 466 491 662 750 331 440 551 915 589 1275 9
92 11 279 3 320 -4 19 -10 58 -13 85 -6 53 -9 70 -32 200 -15 87 -36 202 -49
265 -9 41 -19 88 -21 104 -10 54 -75 311 -104 411 -73 249 -137 420 -227 605
-81 166 -100 220 -108 307 -4 37 -8 70 -8 73 0 3 3 39 7 81 4 42 9 94 11 115
2 22 6 71 10 109 10 109 14 154 20 240 3 44 8 100 10 125 2 25 7 95 10 155 4
61 8 130 11 155 2 25 6 106 10 180 3 74 7 167 9 205 34 618 24 1748 -20 2375
-1 19 -5 85 -9 145 -4 61 -9 121 -11 135 -2 14 -6 61 -10 105 -18 202 -36 370
-50 470 -3 17 -11 80 -20 140 -8 61 -18 126 -21 145 -38 241 -36 232 -75 425
-65 321 -156 637 -250 867 -228 557 -539 808 -889 716z m-1505 -7529 c28 -6
59 -12 71 -15 124 -24 309 -116 447 -222 139 -106 163 -165 161 -387 -5 -544
-260 -952 -664 -1064 -99 -28 -165 -35 -310 -35 -246 0 -421 40 -616 139 -162
83 -359 256 -409 360 -39 80 -36 143 16 292 152 436 420 737 784 880 84 33
167 54 244 60 36 3 67 7 69 8 7 6 162 -6 207 -16z m-5065 -745 c41 -8 84 -17
95 -19 37 -8 159 -52 210 -76 49 -22 195 -107 205 -118 3 -4 30 -25 60 -47
112 -84 258 -245 357 -394 58 -87 73 -126 73 -187 0 -47 -46 -175 -80 -223
-11 -16 -20 -32 -20 -37 -1 -14 -102 -148 -156 -205 -144 -152 -326 -265 -544
-336 -394 -130 -707 -66 -965 195 -166 168 -307 441 -359 692 -26 126 -11 176
93 315 176 234 404 386 661 439 89 19 278 19 370 1z"/>
<path d="M10188 6660 c-51 -15 -85 -43 -126 -104 -95 -143 -127 -237 -126
-371 1 -94 3 -105 37 -176 56 -116 209 -261 312 -296 61 -20 136 0 182 49 33
35 91 167 112 255 22 92 21 222 -3 298 -16 53 -74 154 -116 201 -31 36 -128
118 -156 132 -29 16 -83 21 -116 12z"/>
<path d="M5501 5973 c-39 -8 -114 -96 -158 -185 -77 -155 -87 -296 -32 -443
41 -109 183 -292 245 -316 51 -19 102 -17 145 4 82 41 199 215 233 348 42 166
-30 352 -193 500 -99 89 -150 109 -240 92z"/>
</g>
</svg>
